<svg width="616" height="616" viewBox="0 0 616 616" fill="none" xmlns="http://www.w3.org/2000/svg">
<rect width="616" height="616" rx="40" fill="#3F8EFC"/>
<g opacity="0.3" filter="url(#filter0_f_3_34)">
<path d="M415 468.5C444.547 468.5 468.5 444.547 468.5 415C468.5 385.453 444.547 361.5 415 361.5C385.453 361.5 361.5 385.453 361.5 415C361.5 444.547 385.453 468.5 415 468.5Z" stroke="white" stroke-width="21" stroke-linecap="round" stroke-linejoin="round"/>
<path d="M201 254.5C230.547 254.5 254.5 230.547 254.5 201C254.5 171.453 230.547 147.5 201 147.5C171.453 147.5 147.5 171.453 147.5 201C147.5 230.547 171.453 254.5 201 254.5Z" stroke="white" stroke-width="21" stroke-linecap="round" stroke-linejoin="round"/>
<path d="M325.833 201H379.333C388.793 201 397.865 204.758 404.554 211.447C411.242 218.135 415 227.207 415 236.667V361.5" stroke="white" stroke-width="21" stroke-linecap="round" stroke-linejoin="round"/>
<path d="M201 254.5V468.5" stroke="white" stroke-width="21" stroke-linecap="round" stroke-linejoin="round"/>
</g>
<path d="M241.906 317.688H197.688V363H170.266V249.25H246.359V270.422H197.688V296.594H241.906V317.688ZM316.438 332.766C316.438 328.755 315.005 325.63 312.141 323.391C309.328 321.151 304.354 318.833 297.219 316.438C290.083 314.042 284.25 311.724 279.719 309.484C264.979 302.245 257.609 292.297 257.609 279.641C257.609 273.339 259.432 267.792 263.078 263C266.776 258.156 271.984 254.406 278.703 251.75C285.422 249.042 292.974 247.688 301.359 247.688C309.536 247.688 316.854 249.146 323.312 252.062C329.823 254.979 334.875 259.146 338.469 264.562C342.062 269.927 343.859 276.073 343.859 283H316.516C316.516 278.365 315.083 274.771 312.219 272.219C309.406 269.667 305.578 268.391 300.734 268.391C295.839 268.391 291.958 269.484 289.094 271.672C286.281 273.807 284.875 276.542 284.875 279.875C284.875 282.792 286.438 285.448 289.562 287.844C292.688 290.188 298.182 292.635 306.047 295.188C313.911 297.688 320.37 300.396 325.422 303.312C337.714 310.396 343.859 320.161 343.859 332.609C343.859 342.557 340.109 350.37 332.609 356.047C325.109 361.724 314.823 364.562 301.75 364.562C292.531 364.562 284.172 362.922 276.672 359.641C269.224 356.307 263.599 351.776 259.797 346.047C256.047 340.266 254.172 333.625 254.172 326.125H281.672C281.672 332.219 283.234 336.724 286.359 339.641C289.536 342.505 294.667 343.938 301.75 343.938C306.281 343.938 309.849 342.974 312.453 341.047C315.109 339.068 316.438 336.307 316.438 332.766ZM449.953 324.484C449.589 332.401 447.453 339.406 443.547 345.5C439.641 351.542 434.146 356.229 427.062 359.562C420.031 362.896 411.984 364.562 402.922 364.562C387.974 364.562 376.203 359.693 367.609 349.953C359.016 340.214 354.719 326.464 354.719 308.703V303.078C354.719 291.932 356.646 282.193 360.5 273.859C364.406 265.474 370.005 259.016 377.297 254.484C384.589 249.901 393.026 247.609 402.609 247.609C416.411 247.609 427.505 251.255 435.891 258.547C444.276 265.786 449.042 275.786 450.188 288.547H422.844C422.635 281.62 420.891 276.646 417.609 273.625C414.328 270.604 409.328 269.094 402.609 269.094C395.786 269.094 390.786 271.646 387.609 276.75C384.432 281.854 382.766 290.005 382.609 301.203V309.25C382.609 321.385 384.12 330.057 387.141 335.266C390.214 340.474 395.474 343.078 402.922 343.078C409.224 343.078 414.042 341.594 417.375 338.625C420.708 335.656 422.479 330.943 422.688 324.484H449.953Z" fill="white"/>
<defs>
<filter id="filter0_f_3_34" x="54" y="54" width="508" height="508" filterUnits="userSpaceOnUse" color-interpolation-filters="sRGB">
<feFlood flood-opacity="0" result="BackgroundImageFix"/>
<feBlend mode="normal" in="SourceGraphic" in2="BackgroundImageFix" result="shape"/>
<feGaussianBlur stdDeviation="20" result="effect1_foregroundBlur_3_34"/>
</filter>
</defs>
</svg>
