<svg width="696" height="696" viewBox="0 0 696 696" fill="none" xmlns="http://www.w3.org/2000/svg">
<path d="M675.23 348C686.701 348 696.065 338.692 695.381 327.242C691.32 259.27 667.387 193.811 626.33 139.107C581.109 78.8532 517.555 34.9013 445.218 13.8552C372.881 -7.19085 295.667 -4.19436 225.179 22.3945C154.69 48.9833 94.7339 97.7285 54.3176 161.306C13.9013 224.884 -4.79188 299.86 1.04664 374.97C6.88516 450.08 36.9401 521.267 86.6956 577.835C136.451 634.403 203.22 673.297 276.971 688.674C343.928 702.634 413.356 696.526 476.627 671.356C487.285 667.116 491.74 654.688 486.871 644.301V644.301C482.003 633.914 469.657 629.512 458.965 633.665C403.869 655.068 343.601 660.133 285.449 648.009C220.502 634.467 161.703 600.216 117.887 550.4C74.0706 500.584 47.6033 437.895 42.4617 371.75C37.3201 305.606 53.7819 239.58 89.3738 183.591C124.966 127.603 177.765 84.6763 239.84 61.2613C301.914 37.8463 369.911 35.2075 433.613 53.7413C497.315 72.2752 553.283 110.981 593.107 164.042C628.764 211.552 649.754 268.273 653.757 327.245C654.533 338.689 663.759 348 675.23 348V348Z" fill="#2667FF"/>
</svg>
