<svg width="100" height="100" viewBox="0 0 100 100" fill="none" xmlns="http://www.w3.org/2000/svg">
<path d="M66.6667 66.6667L50 50L33.3333 66.6667" stroke="white" stroke-width="4.16667" stroke-linecap="round" stroke-linejoin="round"/>
<path d="M50 50V87.5" stroke="white" stroke-width="7" stroke-linecap="round" stroke-linejoin="round"/>
<path d="M84.9583 76.625C89.0222 74.4095 92.2326 70.9037 94.0828 66.6609C95.933 62.4182 96.3176 57.6801 95.1759 53.1945C94.0342 48.709 91.4312 44.7313 87.7778 41.8894C84.1244 39.0474 79.6286 37.5031 75 37.5H69.75C68.4888 32.6218 66.1382 28.0931 62.8748 24.2541C59.6114 20.4152 55.5202 17.366 50.9087 15.3359C46.2973 13.3057 41.2856 12.3473 36.2505 12.5328C31.2153 12.7184 26.2878 14.0429 21.8382 16.4069C17.3887 18.771 13.533 22.1129 10.5609 26.1816C7.58889 30.2503 5.57788 34.9397 4.67909 39.8975C3.78029 44.8552 4.01711 49.9522 5.37172 54.8052C6.72634 59.6583 9.16351 64.1411 12.5 67.9167" stroke="white" stroke-width="7" stroke-linecap="round" stroke-linejoin="round"/>
<path d="M66.6667 66.6667L50 50L33.3333 66.6667" stroke="white" stroke-width="7" stroke-linecap="round" stroke-linejoin="round"/>
</svg>
